# xmcd
#
# Track frame offsets:
#	150
#	11682
#	21700
#	32575
#	46200
#	59107
#	70682
#	81420
#	95170
#	106735
#	121915
#	133460
#	143905
#	153130
#	164757
#	173280
#	182307
#	193237
#
# Disc length: 2684 seconds
#
# Revision: 1
# Processed by: cddbd v1.5.2PL0 Copyright (c) Steve Scherf et al.
# Submitted via: audiograbber 1.83.01
#
DISCID=fc0a7a12
DTITLE=Sandy Posey - All American Country
DYEAR=1900
DGENRE=Oldies
TTITLE0=Single Girl
TTITLE1=What A Woman In Love Won't Do
TTITLE2=I Take It Back
TTITLE3=Are You Ever Coming Home 
TTITLE4=Sunglasses
TTITLE5=Twelfth Of Never
TTITLE6=Here Comes My Baby Back Again
TTITLE7=Just Out Of Reach
TTITLE8=It's All In The Game
TTITLE9=Don't Touch Me
TTITLE10=I've Been Loving You Too Long
TTITLE11=Will You Love Me Tomorrow 
TTITLE12=Deep In Kentucky
TTITLE13=It's Not Easy
TTITLE14=Blue Is My Best Color
TTITLE15=Hey Mister
TTITLE16=Arms Full Of Sin
TTITLE17=Born A Woman
EXTD=
EXTT0=
EXTT1=
EXTT2=
EXTT3=
EXTT4=
EXTT5=
EXTT6=
EXTT7=
EXTT8=
EXTT9=
EXTT10=
EXTT11=
EXTT12=
EXTT13=
EXTT14=
EXTT15=
EXTT16=
EXTT17=
PLAYORDER=
